<svg xmlns="http://www.w3.org/2000/svg" xmlns:xlink="http://www.w3.org/1999/xlink" viewBox="0 0 30 21.25"><defs><style>.cls-1{fill:none;}.cls-2{clip-path:url(#clip-path);}.cls-3{fill:#fff;}.cls-4{fill:#f7931a;}</style><clipPath id="clip-path" transform="translate(-0.04)"><rect class="cls-1" y="1.52" width="29.98" height="18.6"/></clipPath></defs><title>BCH</title><g id="Layer_2" data-name="Layer 2"><g id="Layer_1-2" data-name="Layer 1"><g class="cls-2"><ellipse class="cls-3" cx="15.01" cy="10.63" rx="10.71" ry="10.63"/></g><path class="cls-4" d="M19.9,20.13H30V1.49H20.39c.23.14,5.28,3.23,5.28,9.18A10.67,10.67,0,0,1,19.9,20.13Z" transform="translate(-0.04)"/><path class="cls-4" d="M10.18,20.13H0V1.49H9.69c-.23.14-5.28,3.23-5.29,9.18A10.7,10.7,0,0,0,10.18,20.13Z" transform="translate(-0.04)"/><circle class="cls-4" cx="15.01" cy="10.64" r="9.15"/><g id="Group_900" data-name="Group 900"><path id="Path_668" data-name="Path 668" class="cls-3" d="M17.11,8.06c-.53-.84-1.45-.76-2.46-.36L14,6.47l-.74.37.6,1.2-.6.31-.6-1.21-.75.37.61,1.23L12.08,9h0L11,9.5l.4.8L12,10a.42.42,0,0,1,.59.12l.7,1.4.08,0-.07,0,1,2a.31.31,0,0,1-.16.39h0l-.55.27.3,1,1-.48.54-.26L16,15.65l.75-.37L16.13,14c.21-.09.41-.19.6-.29L17.34,15l.75-.38-.62-1.24c1.23-.7,2-1.46,1.47-2.7a1.43,1.43,0,0,0-1.85-1,1.29,1.29,0,0,0,0-1.58Zm.28,3.19c.46.93-1.19,1.62-1.69,1.88l-.83-1.65C15.38,11.22,16.9,10.28,17.39,11.25ZM15.88,9.09c.42.85-1,1.42-1.38,1.63l-.75-1.5C14.17,9,15.43,8.21,15.88,9.09Z" transform="translate(-0.04)"/></g></g></g></svg>