<svg xmlns="http://www.w3.org/2000/svg" width="40" height="40" viewBox="0 0 40 40">
  <g id="Group_174" data-name="Group 174" transform="translate(-620.488 -1693.057)">
    <g id="Group_172" data-name="Group 172" transform="translate(2433.391 -2517.506)">
      <circle id="Ellipse_99" data-name="Ellipse 99" cx="20" cy="20" r="20" transform="translate(-1812.904 4210.563)" fill="#fff"/>
      <g id="Ellipse_100" data-name="Ellipse 100" transform="translate(-1812.904 4210.563)" fill="none" stroke="#444055" stroke-miterlimit="10" stroke-width="4">
        <circle cx="20" cy="20" r="20" stroke="none"/>
        <circle cx="20" cy="20" r="18" fill="none"/>
      </g>
    </g>
    <g id="Group_173" data-name="Group 173" transform="translate(2433.391 -2517.506)">
      <path id="Path_241" data-name="Path 241" d="M-1787.267,4235.742" fill="none" stroke="#fff" stroke-linecap="round" stroke-linejoin="round" stroke-width="20.272"/>
      <path id="Path_242" data-name="Path 242" d="M-1787.309,4235.206h0v-.014l-1.733-7.9c0-.028-.015-.043-.029-.071a.013.013,0,0,0-.014-.014.05.05,0,0,0-.014-.028l-3.579-4.9a.3.3,0,0,0-.226-.113.3.3,0,0,0-.225.113l-3.579,4.89a.28.28,0,0,0-.057.113l-1.733,7.919c0,.028-.014.056,0,.085a.187.187,0,0,0,.042.112.332.332,0,0,0,.1.1l5.3,3.34a.289.289,0,0,0,.155.042h0a.322.322,0,0,0,.155-.042l5.313-3.326a.254.254,0,0,0,.1-.113c.014-.014.014-.028.014-.056h0A.138.138,0,0,0-1787.309,4235.206Zm-.944-1.705-1.748-3.086.634-1.987Zm-4.369-10.2,2.988,4.086-.747,2.368-2.241-3.96Zm-.282,3.142,2.283,4.045-1.423,4.5h-1.719l-1.423-4.5Zm-.281-3.142v2.494l-2.241,3.946-.747-2.368Zm-3.256,5.129.635,1.987-1.748,3.086Zm.874,2.72,1.212,3.833h-3.382Zm-1.677,4.4h3.072l.761,2.4Zm4.34,2.128-.676-2.128h1.353Zm.508.268.761-2.4h3.072Zm.944-2.959,1.212-3.833,2.17,3.833Z" fill="#0c0d0d"/>
      <path id="Path_243" data-name="Path 243" d="M-1788.7,4226.469" fill="none" stroke="#fff" stroke-linecap="round" stroke-linejoin="round" stroke-width="20.272"/>
      <path id="Path_244" data-name="Path 244" d="M-1793.524,4238.969" fill="none" stroke="#fff" stroke-linecap="round" stroke-linejoin="round" stroke-width="20.272"/>
      <path id="Path_245" data-name="Path 245" d="M-1786.675,4235.742" fill="none" stroke="#fff" stroke-linecap="round" stroke-linejoin="round" stroke-width="20.272"/>
      <path id="Path_246" data-name="Path 246" d="M-1788.7,4226.469" fill="none" stroke="#fff" stroke-linecap="round" stroke-linejoin="round" stroke-width="20.272"/>
      <path id="Path_247" data-name="Path 247" d="M-1797.1,4226.469" fill="none" stroke="#fff" stroke-linecap="round" stroke-linejoin="round" stroke-width="20.272"/>
      <path id="Path_248" data-name="Path 248" d="M-1799.132,4235.742" fill="none" stroke="#fff" stroke-linecap="round" stroke-linejoin="round" stroke-width="20.272"/>
      <path id="Path_249" data-name="Path 249" d="M-1793.538,4238.969" fill="none" stroke="#fff" stroke-linecap="round" stroke-linejoin="round" stroke-width="20.272"/>
      <path id="Path_250" data-name="Path 250" d="M-1797.1,4226.469" fill="none" stroke="#fff" stroke-linecap="round" stroke-linejoin="round" stroke-width="20.272"/>
      <path id="Path_251" data-name="Path 251" d="M-1790.283,4227.174" fill="none" stroke="#fff" stroke-linecap="round" stroke-linejoin="round" stroke-width="20.272"/>
      <path id="Path_252" data-name="Path 252" d="M-1794.031,4238.969" fill="none" stroke="#fff" stroke-linecap="round" stroke-linejoin="round" stroke-width="20.272"/>
      <path id="Path_253" data-name="Path 253" d="M-1788.465,4235.474" fill="none" stroke="#fff" stroke-linecap="round" stroke-linejoin="round" stroke-width="20.272"/>
      <path id="Path_254" data-name="Path 254" d="M-1790.283,4227.174" fill="none" stroke="#fff" stroke-linecap="round" stroke-linejoin="round" stroke-width="20.272"/>
      <path id="Path_255" data-name="Path 255" d="M-1797.793,4227.174" fill="none" stroke="#fff" stroke-linecap="round" stroke-linejoin="round" stroke-width="20.272"/>
      <path id="Path_256" data-name="Path 256" d="M-1794.045,4238.969" fill="none" stroke="#fff" stroke-linecap="round" stroke-linejoin="round" stroke-width="20.272"/>
      <path id="Path_257" data-name="Path 257" d="M-1797.793,4227.174" fill="none" stroke="#fff" stroke-linecap="round" stroke-linejoin="round" stroke-width="20.272"/>
    </g>
  </g>
</svg>
