<?xml version="1.0" encoding="utf-8"?>
<!-- Generator: Adobe Illustrator 24.3.0, SVG Export Plug-In . SVG Version: 6.00 Build 0)  -->
<svg version="1.1" id="Layer_1" xmlns="http://www.w3.org/2000/svg" xmlns:xlink="http://www.w3.org/1999/xlink" x="0px" y="0px"
	 viewBox="0 0 23 23" style="enable-background:new 0 0 23 23;" xml:space="preserve">
<style type="text/css">
	.st0{fill-rule:evenodd;clip-rule:evenodd;fill:#26A17B;}
	.st1{fill:#FFFFFF;}
</style>
<g transform="matrix(.787893 0 0 .787893 96.4821 140.204)">
	<circle class="st0" cx="-107.9" cy="-163.4" r="14.3"/>
	<g>
		<path class="st1" d="M-106.4-162.1L-106.4-162.1c-0.1,0-0.6,0-1.7,0c-0.9,0-1.5,0-1.8,0v0c-3.5-0.2-6.1-0.8-6.1-1.5
			c0-0.7,2.6-1.3,6.1-1.5v2.4c0.2,0,0.9,0.1,1.8,0.1c1.1,0,1.6,0,1.7-0.1v-2.4c3.5,0.2,6.1,0.8,6.1,1.5
			C-100.3-162.8-102.9-162.2-106.4-162.1 M-106.4-165.3v-2.1h4.9v-3.2h-13.2v3.2h4.9v2.1c-4,0.2-6.9,1-6.9,1.9c0,0.9,3,1.7,6.9,1.9
			v6.8h3.5v-6.8c3.9-0.2,6.9-1,6.9-1.9C-99.4-164.3-102.4-165.1-106.4-165.3"/>
	</g>
</g>
</svg>
