<svg xmlns="http://www.w3.org/2000/svg" viewBox="0 0 120 120"><defs><style>.cls-1{fill:#fff;}.cls-2{fill:#1e1e1e;}</style></defs><title>Stellar Coin</title><g id="Layer_2" data-name="Layer 2"><g id="Layer_1-2" data-name="Layer 1"><circle class="cls-1" cx="60" cy="60" r="60"/><path class="cls-2" d="M60,11.71A48.29,48.29,0,1,1,11.71,60,48.34,48.34,0,0,1,60,11.71M60,0a60,60,0,1,0,60,60A60,60,0,0,0,60,0Z"/><g id="Layer_1-2-2" data-name="Layer 1-2"><path d="M80.67,41.47,74,44.89,41.55,61.4A19.32,19.32,0,0,1,60.72,39.6a19.18,19.18,0,0,1,9.39,2.45l3.84-2,.57-.29A23.58,23.58,0,0,0,37.09,58.88c0,.6,0,1.2.07,1.8a4.28,4.28,0,0,1-2.33,4.14l-2,1v4.81l6-3h0l1.93-1,1.9-1h0L76.76,48.27l3.84-2,7.94-4V37.46Z"/><path d="M88.54,47.09l-44,22.41-3.84,2-7.9,4v4.81l7.85-4,6.71-3.42L79.8,56.35A19.53,19.53,0,0,1,80,58.88,19.29,19.29,0,0,1,51.22,75.71l-.24.13L46.82,78A23.58,23.58,0,0,0,84.25,58.88c0-.6,0-1.21-.07-1.81a4.28,4.28,0,0,1,2.33-4.14l2-1Z"/></g></g></g></svg>